<svg preserveAspectRatio="none" width="100%" height="100%" overflow="visible" style="display: block;" viewBox="0 0 13.3125 13.3125" fill="none" xmlns="http://www.w3.org/2000/svg">
<g id="Container">
<path id="Icon" d="M6.65625 0C5.73958 0 4.88021 0.171875 4.07812 0.515625C3.27604 0.859375 2.56771 1.33854 1.95312 1.95312C1.33854 2.56771 0.859375 3.27604 0.515625 4.07812C0.171875 4.88021 0 5.73958 0 6.65625C0 7.57292 0.171875 8.43229 0.515625 9.23438C0.859375 10.0365 1.33854 10.7448 1.95312 11.3594C2.56771 11.974 3.27604 12.4531 4.07812 12.7969C4.88021 13.1406 5.73958 13.3125 6.65625 13.3125C7.11458 13.3125 7.50521 13.151 7.82812 12.8281C8.15104 12.5052 8.3125 12.1146 8.3125 11.6562C8.3125 11.2396 8.17708 10.8646 7.90625 10.5312C7.84375 10.4688 7.8125 10.3958 7.8125 10.3125C7.8125 10.2292 7.84375 10.1562 7.90625 10.0938C7.96875 10.0312 8.05208 10 8.15625 10H9.3125C10.0625 10 10.7396 9.81771 11.3438 9.45312C11.9479 9.08854 12.4271 8.60417 12.7812 8C13.1354 7.39583 13.3125 6.72917 13.3125 6C13.3125 5.16667 13.1406 4.38542 12.7969 3.65625C12.4531 2.92708 11.974 2.29167 11.3594 1.75C10.7448 1.20833 10.0365 0.78125 9.23438 0.46875C8.43229 0.15625 7.57292 0 6.65625 0V0M10.3125 7.3125C10.0417 7.3125 9.80729 7.21875 9.60938 7.03125C9.41146 6.84375 9.3125 6.60417 9.3125 6.3125C9.3125 6.04167 9.41146 5.80729 9.60938 5.60938C9.80729 5.41146 10.0417 5.3125 10.3125 5.3125C10.6042 5.3125 10.8438 5.41146 11.0312 5.60938C11.2188 5.80729 11.3125 6.04167 11.3125 6.3125C11.3125 6.60417 11.2188 6.84375 11.0312 7.03125C10.8438 7.21875 10.6042 7.3125 10.3125 7.3125V7.3125M8.3125 4.65625C8.04167 4.65625 7.80729 4.55729 7.60938 4.35938C7.41146 4.16146 7.3125 3.92708 7.3125 3.65625C7.3125 3.38542 7.41146 3.15104 7.60938 2.95312C7.80729 2.75521 8.04167 2.65625 8.3125 2.65625C8.60417 2.65625 8.84375 2.75521 9.03125 2.95312C9.21875 3.15104 9.3125 3.38542 9.3125 3.65625C9.3125 3.92708 9.21875 4.16146 9.03125 4.35938C8.84375 4.55729 8.60417 4.65625 8.3125 4.65625V4.65625M2 6.3125C2 6.04167 2.09375 5.80729 2.28125 5.60938C2.46875 5.41146 2.70833 5.3125 3 5.3125C3.27083 5.3125 3.50521 5.41146 3.70312 5.60938C3.90104 5.80729 4 6.04167 4 6.3125C4 6.60417 3.90104 6.84375 3.70312 7.03125C3.50521 7.21875 3.27083 7.3125 3 7.3125C2.70833 7.3125 2.46875 7.21875 2.28125 7.03125C2.09375 6.84375 2 6.60417 2 6.3125V6.3125M6 3.65625C6 3.92708 5.90104 4.16146 5.70312 4.35938C5.50521 4.55729 5.27083 4.65625 5 4.65625C4.70833 4.65625 4.46875 4.55729 4.28125 4.35938C4.09375 4.16146 4 3.92708 4 3.65625C4 3.38542 4.09375 3.15104 4.28125 2.95312C4.46875 2.75521 4.70833 2.65625 5 2.65625C5.27083 2.65625 5.50521 2.75521 5.70312 2.95312C5.90104 3.15104 6 3.38542 6 3.65625V3.65625" fill="var(--fill-0, #4B5563)"/>
</g>
</svg>
