<svg preserveAspectRatio="none" width="100%" height="100%" overflow="visible" style="display: block;" viewBox="0 0 15.1172 12.5" fill="none" xmlns="http://www.w3.org/2000/svg">
<g id="Container">
<path id="Icon" d="M0 3.32031H9.17969V5H0V3.32031V3.32031M0 1.67969H9.17969V0H0V1.67969V1.67969M0 8.32031H5.82031V6.67969H0V8.32031V8.32031M12.5 5.74219L13.0859 5.11719C13.2682 4.96094 13.4701 4.88281 13.6914 4.88281C13.9128 4.88281 14.1016 4.96094 14.2578 5.11719L14.8828 5.74219C15.0391 5.89844 15.1172 6.08724 15.1172 6.30859C15.1172 6.52995 15.0391 6.73177 14.8828 6.91406L14.2578 7.5L12.5 5.74219V5.74219M11.9141 6.32812L7.5 10.7422V12.5H9.25781L13.6719 8.08594L11.9141 6.32812V6.32812" fill="var(--fill-0, #DA620B)"/>
</g>
</svg>
