<svg preserveAspectRatio="none" width="100%" height="100%" overflow="visible" style="display: block;" viewBox="0 0 34.5234 31.5" fill="none" xmlns="http://www.w3.org/2000/svg">
<g id="Container">
<path id="Icon" d="M16.0664 22.957C15.1523 22.043 14.6953 20.9062 14.6953 19.5469C14.6953 18.1875 15.1641 17.0391 16.1016 16.1016C17.0391 15.1641 18.1641 14.6953 19.4766 14.6953C20.8359 14.6953 21.9844 15.1641 22.9219 16.1016C23.8594 17.0391 24.3281 18.1875 24.3281 19.5469C24.3281 20.8594 23.8594 21.9844 22.9219 22.9219C21.9844 23.8594 20.8359 24.3281 19.4766 24.3281C18.1172 24.3281 16.9805 23.8711 16.0664 22.957V22.957M14.2031 24.8203C15.6562 26.2734 17.4141 27 19.4766 27C21.5391 27 23.3086 26.2734 24.7852 24.8203C26.2617 23.3672 27 21.6094 27 19.5469C27 17.4844 26.2617 15.7148 24.7852 14.2383C23.3086 12.7617 21.5391 12.0234 19.4766 12.0234C17.4141 12.0234 15.6562 12.7617 14.2031 14.2383C12.75 15.7148 12.0234 17.4844 12.0234 19.5469C12.0234 21.6094 12.75 23.3672 14.2031 24.8203V24.8203M9 13.5V9H13.5V4.5H23.9766L26.7188 7.52344H31.5C32.2969 7.52344 33 7.82812 33.6094 8.4375C34.2188 9.04688 34.5234 9.75 34.5234 10.5469V28.5469C34.5234 29.3438 34.2188 30.0352 33.6094 30.6211C33 31.207 32.2969 31.5 31.5 31.5H7.52344C6.72656 31.5 6.02344 31.207 5.41406 30.6211C4.80469 30.0352 4.5 29.3438 4.5 28.5469V13.5H9V13.5M4.5 4.5V0H7.52344V4.5H12.0234V7.52344H7.52344V12.0234H4.5V7.52344H0V4.5H4.5V4.5" fill="var(--fill-0, #9CA3AF)"/>
</g>
</svg>
