<svg preserveAspectRatio="none" width="100%" height="100%" overflow="visible" style="display: block;" viewBox="0 0 13.3125 10.6875" fill="none" xmlns="http://www.w3.org/2000/svg">
<g id="Container">
<path id="Icon" d="M10.6562 0H13.3125V9.34375C13.3125 9.69792 13.1823 10.0104 12.9219 10.2812C12.6615 10.5521 12.3542 10.6875 12 10.6875H1.3125C0.958333 10.6875 0.651042 10.5521 0.390625 10.2812C0.130208 10.0104 0 9.69792 0 9.34375V1.34375C0 0.989583 0.130208 0.677083 0.390625 0.40625C0.651042 0.135417 0.958333 0 1.3125 0H2L3.3125 2.6875H5.3125L4 0H5.3125L6.65625 2.6875H8.65625L7.3125 0H8.65625L10 2.6875H12L10.6562 0V0" fill="var(--fill-0, #4B5563)"/>
</g>
</svg>
