<svg preserveAspectRatio="none" width="100%" height="100%" overflow="visible" style="display: block;" viewBox="0 0 20 23.75" fill="none" xmlns="http://www.w3.org/2000/svg">
<g id="Container">
<path id="Icon" d="M2.5 13.75C2.5 14.8333 2.71875 15.8594 3.15625 16.8281C3.59375 17.7969 4.21875 18.6458 5.03125 19.375C5.01042 19.2708 5 19.1771 5 19.0938C5 19.0104 5 18.9167 5 18.8125C5 18.1458 5.125 17.5208 5.375 16.9375C5.625 16.3542 5.98958 15.8229 6.46875 15.3438L10 11.875L13.5312 15.3438C14.0104 15.8229 14.375 16.3542 14.625 16.9375C14.875 17.5208 15 18.1458 15 18.8125C15 18.9167 15 19.0104 15 19.0938C15 19.1771 14.9896 19.2708 14.9688 19.375C15.7812 18.6458 16.4062 17.7969 16.8438 16.8281C17.2812 15.8594 17.5 14.8333 17.5 13.75C17.5 12.7083 17.3073 11.724 16.9219 10.7969C16.5365 9.86979 15.9792 9.04167 15.25 8.3125V8.3125C14.8333 8.58333 14.3958 8.78646 13.9375 8.92188C13.4792 9.05729 13.0104 9.125 12.5312 9.125C11.2396 9.125 10.1198 8.69792 9.17188 7.84375C8.22396 6.98958 7.67708 5.9375 7.53125 4.6875V4.6875C6.71875 5.375 6 6.08854 5.375 6.82812C4.75 7.56771 4.22396 8.31771 3.79688 9.07812C3.36979 9.83854 3.04688 10.6146 2.82812 11.4062C2.60938 12.1979 2.5 12.9792 2.5 13.75V13.75M10 15.375L8.21875 17.125C7.98958 17.3542 7.8125 17.6146 7.6875 17.9062C7.5625 18.1979 7.5 18.5 7.5 18.8125C7.5 19.4792 7.74479 20.0521 8.23438 20.5312C8.72396 21.0104 9.3125 21.25 10 21.25C10.6875 21.25 11.276 21.0104 11.7656 20.5312C12.2552 20.0521 12.5 19.4792 12.5 18.8125C12.5 18.4792 12.4375 18.1719 12.3125 17.8906C12.1875 17.6094 12.0104 17.3542 11.7812 17.125L10 15.375V15.375M10 0V4.125C10 4.83333 10.2448 5.42708 10.7344 5.90625C11.224 6.38542 11.8229 6.625 12.5312 6.625C12.9062 6.625 13.2552 6.54688 13.5781 6.39062C13.901 6.23438 14.1875 6 14.4375 5.6875L15 5C16.5417 5.875 17.7604 7.09375 18.6562 8.65625C19.5521 10.2188 20 11.9167 20 13.75C20 16.5417 19.0312 18.9062 17.0938 20.8438C15.1562 22.7812 12.7917 23.75 10 23.75C7.20833 23.75 4.84375 22.7812 2.90625 20.8438C0.96875 18.9062 0 16.5417 0 13.75C0 11.0625 0.901042 8.51042 2.70312 6.09375C4.50521 3.67708 6.9375 1.64583 10 0V0" fill="var(--fill-0, #E66B11)"/>
</g>
</svg>
