<svg preserveAspectRatio="none" width="100%" height="100%" overflow="visible" style="display: block;" viewBox="0 0 14 13" fill="none" xmlns="http://www.w3.org/2000/svg">
<g id="Container">
<path id="Icon" d="M9.47234 9.76526H11.5277L10.4851 6.92723L9.47234 9.76526ZM11.1404 5.18779L14 13H12.7191L12.0043 11.0469H8.99574L8.28085 13H7L9.85957 5.18779H11.1404ZM7.56596 8.48357L7.05957 9.82629L5.09362 7.81221L1.90638 11.0469L1.01277 10.1315L4.25957 6.8662C3.46525 5.97105 2.82979 4.98435 2.35319 3.9061H3.63404C4.05106 4.71987 4.53759 5.4421 5.09362 6.07277C6.00709 5.03521 6.68227 3.87559 7.11915 2.5939H0V1.28169H4.46809V0H5.71915V1.28169H10.1872V2.5939H8.31064C8.11206 3.24491 7.7844 3.98239 7.32766 4.80634C6.87092 5.63028 6.41418 6.30673 5.95745 6.83568L5.92766 6.8662L7.56596 8.48357Z" fill="var(--fill-0, white)"/>
</g>
</svg>
