<svg preserveAspectRatio="none" width="100%" height="100%" overflow="visible" style="display: block;" viewBox="0 0 12 13.3125" fill="none" xmlns="http://www.w3.org/2000/svg">
<g id="Container">
<path id="Icon" d="M8.65625 2.65625C8.65625 2.03125 8.99479 1.43229 9.67188 0.859375C10.349 0.286458 11.125 0 12 0V13.3125H10.3438V8H8.65625V2.65625V2.65625M5.34375 4.65625V0H6.65625V4.65625C6.65625 5.36458 6.41667 5.97396 5.9375 6.48438C5.45833 6.99479 4.86458 7.27083 4.15625 7.3125V13.3125H2.5V7.3125C1.79167 7.27083 1.19792 6.99479 0.71875 6.48438C0.239583 5.97396 0 5.36458 0 4.65625V0H1.34375V4.65625H2.65625V0H4V4.65625H5.34375V4.65625" fill="var(--fill-0, white)"/>
</g>
</svg>
