<svg preserveAspectRatio="none" width="100%" height="100%" overflow="visible" style="display: block;" viewBox="0 0 12.8056 9.3125" fill="none" xmlns="http://www.w3.org/2000/svg">
<g id="Container">
<path id="Icon" d="M9.26562 5.125C9.40104 5.25 9.5625 5.3125 9.75 5.3125C9.9375 5.3125 10.0938 5.25 10.2188 5.125C10.3438 5 10.4062 4.84375 10.4062 4.65625C10.4062 4.46875 10.3438 4.3125 10.2188 4.1875C10.0938 4.0625 9.9375 4 9.75 4C9.5625 4 9.40104 4.0625 9.26562 4.1875C9.13021 4.3125 9.0625 4.46875 9.0625 4.65625C9.0625 4.84375 9.13021 5 9.26562 5.125V5.125M7.9375 3.125C8.0625 3.25 8.21875 3.3125 8.40625 3.3125C8.59375 3.3125 8.75 3.25 8.875 3.125C9 3 9.0625 2.84375 9.0625 2.65625C9.0625 2.46875 9 2.3125 8.875 2.1875C8.75 2.0625 8.59375 2 8.40625 2C8.21875 2 8.0625 2.0625 7.9375 2.1875C7.8125 2.3125 7.75 2.46875 7.75 2.65625C7.75 2.84375 7.8125 3 7.9375 3.125V3.125M5.75 4V3.3125H4.40625V2H3.75V3.3125H2.40625V4H3.75V5.3125H4.40625V4H5.75V4M12.7812 7.375C12.8646 7.89583 12.7344 8.34896 12.3906 8.73438C12.0469 9.11979 11.6146 9.3125 11.0938 9.3125C10.6354 9.3125 10.2396 9.14583 9.90625 8.8125L8.40625 7.3125H4.40625L2.90625 8.8125C2.57292 9.14583 2.16667 9.3125 1.6875 9.3125C1.20833 9.3125 0.807292 9.15104 0.484375 8.82812C0.161458 8.50521 0 8.10417 0 7.625C0 7.60417 0.00520833 7.5625 0.015625 7.5C0.0260417 7.4375 0.03125 7.39583 0.03125 7.375L0.75 2.28125C0.833333 1.63542 1.125 1.09375 1.625 0.65625C2.125 0.21875 2.70833 0 3.375 0H9.4375C10.0833 0 10.6562 0.223958 11.1562 0.671875C11.6562 1.11979 11.9583 1.65625 12.0625 2.28125L12.7812 7.375V7.375" fill="var(--fill-0, #4B5563)"/>
</g>
</svg>
