<svg width="28" height="25" viewBox="0 0 28 25" fill="none" xmlns="http://www.w3.org/2000/svg">
<path d="M18.6328 18.75H22.6758L20.625 13.3008L18.6328 18.75ZM21.9141 9.96094L27.5391 24.9609H25.0195L23.6133 21.2109H17.6953L16.2891 24.9609H13.7695L19.3945 9.96094H21.9141ZM14.8828 16.2891L13.8867 18.8672L10.0195 15L3.75 21.2109L1.99219 19.4531L8.37891 13.1836C6.81641 11.4648 5.56641 9.57031 4.62891 7.5H7.14844C7.96875 9.0625 8.92578 10.4492 10.0195 11.6602C11.8164 9.66797 13.1445 7.44141 14.0039 4.98047H0V2.46094H8.78906V0H11.25V2.46094H20.0391V4.98047H16.3477C15.957 6.23047 15.3125 7.64648 14.4141 9.22852C13.5156 10.8105 12.6172 12.1094 11.7188 13.125L11.6602 13.1836L14.8828 16.2891Z" fill="white"/>
</svg>
