<svg preserveAspectRatio="none" width="100%" height="100%" overflow="visible" style="display: block;" viewBox="0 0 12 12" fill="none" xmlns="http://www.w3.org/2000/svg">
<g id="Container">
<path id="Icon" d="M6 0C5.16667 0 4.39062 0.15625 3.67188 0.46875C2.95312 0.78125 2.31771 1.21354 1.76562 1.76562C1.21354 2.31771 0.78125 2.95312 0.46875 3.67188C0.15625 4.39062 0 5.16667 0 6V10.6562C0 11.0312 0.130208 11.349 0.390625 11.6094C0.651042 11.8698 0.96875 12 1.34375 12H4V6.65625H1.34375V6C1.34375 5.35417 1.46354 4.75 1.70312 4.1875C1.94271 3.625 2.27604 3.13021 2.70312 2.70312C3.13021 2.27604 3.625 1.94271 4.1875 1.70312C4.75 1.46354 5.35417 1.34375 6 1.34375C6.64583 1.34375 7.25 1.46354 7.8125 1.70312C8.375 1.94271 8.86979 2.27604 9.29688 2.70312C9.72396 3.13021 10.0573 3.625 10.2969 4.1875C10.5365 4.75 10.6562 5.35417 10.6562 6V6.65625H8V12H10.6562C11.0312 12 11.349 11.8698 11.6094 11.6094C11.8698 11.349 12 11.0312 12 10.6562V6C12 5.16667 11.8438 4.39062 11.5312 3.67188C11.2188 2.95312 10.7865 2.31771 10.2344 1.76562C9.68229 1.21354 9.04688 0.78125 8.32812 0.46875C7.60938 0.15625 6.83333 0 6 0V0" fill="var(--fill-0, #4B5563)"/>
</g>
</svg>
