<svg width="13" height="16" viewBox="0 0 13 16" fill="none" xmlns="http://www.w3.org/2000/svg">
<path d="M10.5117 14.2734V6.75H1.51172V14.2734H10.5117ZM3.69141 3.76172V5.27344H8.33203V3.76172C8.33203 3.12891 8.10352 2.58398 7.64648 2.12695C7.18945 1.66992 6.64453 1.44141 6.01172 1.44141C5.37891 1.44141 4.83398 1.66992 4.37695 2.12695C3.91992 2.58398 3.69141 3.12891 3.69141 3.76172ZM10.5117 5.27344C10.9102 5.27344 11.2617 5.41992 11.5664 5.71289C11.8711 6.00586 12.0234 6.35156 12.0234 6.75V14.2734C12.0234 14.6719 11.8711 15.0176 11.5664 15.3105C11.2617 15.6035 10.9102 15.75 10.5117 15.75H1.51172C1.11328 15.75 0.761719 15.6035 0.457031 15.3105C0.152344 15.0176 0 14.6719 0 14.2734V6.75C0 6.35156 0.152344 6.00586 0.457031 5.71289C0.761719 5.41992 1.11328 5.27344 1.51172 5.27344H2.25V3.76172C2.25 2.73047 2.61914 1.8457 3.35742 1.10742C4.0957 0.369141 4.98047 0 6.01172 0C7.04297 0 7.92773 0.369141 8.66602 1.10742C9.4043 1.8457 9.77344 2.73047 9.77344 3.76172V5.27344H10.5117ZM7.06641 11.5664C6.76172 11.8711 6.41016 12.0234 6.01172 12.0234C5.61328 12.0234 5.26172 11.8711 4.95703 11.5664C4.65234 11.2617 4.5 10.9102 4.5 10.5117C4.5 10.1133 4.65234 9.76172 4.95703 9.45703C5.26172 9.15234 5.61328 9 6.01172 9C6.41016 9 6.76172 9.15234 7.06641 9.45703C7.37109 9.76172 7.52344 10.1133 7.52344 10.5117C7.52344 10.9102 7.37109 11.2617 7.06641 11.5664Z" fill="#9CA3AF"/>
</svg>
