<svg preserveAspectRatio="none" width="100%" height="100%" overflow="visible" style="display: block;" viewBox="0 0 16 10.6875" fill="none" xmlns="http://www.w3.org/2000/svg">
<g id="Container">
<path id="Icon" d="M2.65625 1.34375V8H13.3438V1.34375H2.65625V1.34375M13.3438 9.34375H16V10.6875H0V9.34375H2.65625C2.30208 9.34375 1.99479 9.20833 1.73438 8.9375C1.47396 8.66667 1.34375 8.35417 1.34375 8V1.34375C1.34375 0.989583 1.47396 0.677083 1.73438 0.40625C1.99479 0.135417 2.30208 0 2.65625 0H13.3438C13.6979 0 14.0052 0.135417 14.2656 0.40625C14.526 0.677083 14.6562 0.989583 14.6562 1.34375V8C14.6562 8.35417 14.526 8.66667 14.2656 8.9375C14.0052 9.20833 13.6979 9.34375 13.3438 9.34375V9.34375" fill="var(--fill-0, #4B5563)"/>
</g>
</svg>
