<svg preserveAspectRatio="none" width="100%" height="100%" overflow="visible" style="display: block;" viewBox="0 0 13.6562 13.3125" fill="none" xmlns="http://www.w3.org/2000/svg">
<g id="Container">
<path id="Icon" d="M11.5312 9.9375C11.6562 9.6875 11.7656 9.43229 11.8594 9.17188C11.9531 8.91146 12 8.625 12 8.3125C12 7.77083 11.8646 7.27083 11.5938 6.8125C11.3229 6.35417 10.9583 5.98958 10.5 5.71875C10.0417 5.44792 9.54167 5.3125 9 5.3125C8.4375 5.3125 7.92708 5.44792 7.46875 5.71875C7.01042 5.98958 6.65104 6.35417 6.39062 6.8125C6.13021 7.27083 6 7.77083 6 8.3125C6 8.875 6.13021 9.38542 6.39062 9.84375C6.65104 10.3021 7.01042 10.6615 7.46875 10.9219C7.92708 11.1823 8.4375 11.3125 9 11.3125C9.29167 11.3125 9.57292 11.2708 9.84375 11.1875C10.1146 11.1042 10.3646 10.9896 10.5938 10.8438L12.7188 13L13.6562 12.0625L11.5312 9.9375V9.9375M9 10C8.52083 10 8.11979 9.83854 7.79688 9.51562C7.47396 9.19271 7.3125 8.79167 7.3125 8.3125C7.3125 7.85417 7.47396 7.46354 7.79688 7.14062C8.11979 6.81771 8.52083 6.65625 9 6.65625C9.45833 6.65625 9.84896 6.81771 10.1719 7.14062C10.4948 7.46354 10.6562 7.85417 10.6562 8.3125C10.6562 8.79167 10.4948 9.19271 10.1719 9.51562C9.84896 9.83854 9.45833 10 9 10V10M6.65625 12V13.3125C5.73958 13.3125 4.88021 13.1406 4.07812 12.7969C3.27604 12.4531 2.56771 11.974 1.95312 11.3594C1.33854 10.7448 0.859375 10.0365 0.515625 9.23438C0.171875 8.43229 0 7.57292 0 6.65625C0 5.73958 0.171875 4.88021 0.515625 4.07812C0.859375 3.27604 1.33854 2.56771 1.95312 1.95312C2.56771 1.33854 3.27604 0.859375 4.07812 0.515625C4.88021 0.171875 5.73958 0 6.65625 0C7.46875 0 8.23438 0.130208 8.95312 0.390625C9.67188 0.651042 10.3229 1.02604 10.9062 1.51562C11.4896 2.00521 11.9792 2.57292 12.375 3.21875C12.7708 3.86458 13.0417 4.5625 13.1875 5.3125H11.8125C11.6042 4.5 11.2188 3.77604 10.6562 3.14062C10.0938 2.50521 9.42708 2.03125 8.65625 1.71875V2C8.65625 2.35417 8.52604 2.66146 8.26562 2.92188C8.00521 3.18229 7.6875 3.3125 7.3125 3.3125H6V4.65625C6 4.84375 5.93229 5 5.79688 5.125C5.66146 5.25 5.5 5.3125 5.3125 5.3125H4V6.65625H5.3125V8.65625H4.65625L1.46875 5.46875C1.42708 5.65625 1.39062 5.84896 1.35938 6.04688C1.32812 6.24479 1.3125 6.44792 1.3125 6.65625C1.3125 7.38542 1.45312 8.07292 1.73438 8.71875C2.01562 9.36458 2.40104 9.93229 2.89062 10.4219C3.38021 10.9115 3.94792 11.2969 4.59375 11.5781C5.23958 11.8594 5.92708 12 6.65625 12V12" fill="var(--fill-0, white)"/>
</g>
</svg>
