<svg width="17" height="15" viewBox="0 0 17 15" fill="none" xmlns="http://www.w3.org/2000/svg">
<path d="M8.15625 4.5H8.26172C8.87109 4.5 9.39844 4.72266 9.84375 5.16797C10.2891 5.61328 10.5117 6.14062 10.5117 6.75V6.89062L8.15625 4.5ZM4.92188 5.09766C4.64062 5.66016 4.5 6.21094 4.5 6.75C4.5 7.78125 4.86914 8.66602 5.60742 9.4043C6.3457 10.1426 7.23047 10.5117 8.26172 10.5117C8.80078 10.5117 9.35156 10.3711 9.91406 10.0898L8.75391 8.92969C8.56641 8.97656 8.40234 9 8.26172 9C7.65234 9 7.125 8.77734 6.67969 8.33203C6.23438 7.88672 6.01172 7.35938 6.01172 6.75C6.01172 6.60938 6.03516 6.44531 6.08203 6.25781L4.92188 5.09766ZM0.773438 0.949219L1.72266 0L15.0117 13.2891L14.0625 14.2383C13.9453 14.1211 13.5762 13.7578 12.9551 13.1484C12.334 12.5391 11.8594 12.0703 11.5312 11.7422C10.5234 12.1641 9.43359 12.375 8.26172 12.375C6.41016 12.375 4.73438 11.8594 3.23438 10.8281C1.73438 9.79688 0.65625 8.4375 0 6.75C0.257812 6.14062 0.662109 5.4668 1.21289 4.72852C1.76367 3.99023 2.29688 3.42188 2.8125 3.02344C2.53125 2.74219 2.13867 2.34375 1.63477 1.82812C1.13086 1.3125 0.84375 1.01953 0.773438 0.949219ZM8.26172 2.98828C7.79297 2.98828 7.33594 3.08203 6.89062 3.26953L5.27344 1.65234C6.1875 1.30078 7.18359 1.125 8.26172 1.125C10.1133 1.125 11.7832 1.64062 13.2715 2.67188C14.7598 3.70312 15.832 5.0625 16.4883 6.75C15.9258 8.13281 15.0703 9.31641 13.9219 10.3008L11.7422 8.12109C11.9297 7.67578 12.0234 7.21875 12.0234 6.75C12.0234 5.71875 11.6543 4.83398 10.916 4.0957C10.1777 3.35742 9.29297 2.98828 8.26172 2.98828Z" fill="#9CA3AF"/>
</svg>
